<svg id="Layer_1" data-name="Layer 1" xmlns="http://www.w3.org/2000/svg" xmlns:xlink="http://www.w3.org/1999/xlink" viewBox="0 0 400.7 117.45"><defs><style>.cls-1{fill:url(#linear-gradient);}.cls-2{fill:url(#linear-gradient-2);}.cls-3{fill:url(#linear-gradient-3);}.cls-4{fill:url(#linear-gradient-4);}.cls-5{fill:url(#linear-gradient-5);}.cls-6{fill:url(#linear-gradient-6);}.cls-7{fill:#e81c3d;}.cls-8{fill:#ffcc04;}.cls-9{fill:#f48220;}.cls-10{fill:#606464;}.cls-11{fill:#e6203e;}</style><linearGradient id="linear-gradient" x1="-14608.23" y1="52.43" x2="-14633.45" y2="52.43" gradientTransform="matrix(-1, 0, 0, 1, -14581.1, 0)" gradientUnits="userSpaceOnUse"><stop offset="0" stop-color="#600f40"/><stop offset="0.25" stop-color="#9c1c26"/><stop offset="0.75" stop-color="#e46626"/><stop offset="1" stop-color="#f68a25"/></linearGradient><linearGradient id="linear-gradient-2" x1="-14615.86" y1="57.22" x2="-14635.07" y2="57.22" xlink:href="#linear-gradient"/><linearGradient id="linear-gradient-3" x1="-14626.92" y1="58.06" x2="-14637.18" y2="58.06" xlink:href="#linear-gradient"/><linearGradient id="linear-gradient-4" x1="-14627.01" y1="46.52" x2="-14652.24" y2="46.52" gradientTransform="matrix(-1, 0, 0, 1, -14581.1, 0)" gradientUnits="userSpaceOnUse"><stop offset="0.01" stop-color="#f68a25"/><stop offset="0.25" stop-color="#e46626"/><stop offset="0.75" stop-color="#9c1c26"/><stop offset="1" stop-color="#600f40"/></linearGradient><linearGradient id="linear-gradient-5" x1="-14625.4" y1="41.73" x2="-14644.61" y2="41.73" xlink:href="#linear-gradient-4"/><linearGradient id="linear-gradient-6" x1="-14623.28" y1="40.89" x2="-14633.55" y2="40.89" xlink:href="#linear-gradient-4"/></defs><path class="cls-1" d="M52.36,50.65c-.56.4-.66,1.14-1.06,1.69-2.25,3.07-6.2,2.09-9.31,1.2-4.64-1.33-9.05-3.52-13.71-4.83-.3,0-1,4.5-1.14,5.14,4.73.26,9.33,1.64,14,2.1S51.21,56.47,52.36,50.65Z"/><path class="cls-2" d="M53.42,49.41c-.32,0-.18.4-.16.6.44,4.56-2.83,5.82-6.55,7.11-3.91,1.36-8.07,2.09-11.92,3.64-.28.4,1.65,3.55,1.7,4.27,3.45-2,7.2-3.53,10.7-5.47C51.06,57.4,55.56,54.63,53.42,49.41Z"/><path class="cls-3" d="M49.53,68c1.35-3.66,3.62-6.94,5.15-10.52,1.16-2.71,2.45-6.2.07-8.65-.25-.26-1.08-1-1.33-.79,3.14,3,1.06,6.14-.92,9-.82,1.2-6.67,8.35-6.68,8.91,0,.32,1.64,1.16,2,1.36S49.3,68.2,49.53,68Z"/><path class="cls-4" d="M45.92,48.3c.55-.4.65-1.14,1-1.69,2.25-3.07,6.2-2.09,9.31-1.2,4.65,1.33,9.06,3.52,13.71,4.83.31,0,1-4.5,1.15-5.14-4.74-.27-9.34-1.64-14-2.11S47.07,42.47,45.92,48.3Z"/><path class="cls-5" d="M44.86,49.54c.31,0,.17-.4.15-.6-.44-4.57,2.83-5.82,6.56-7.12,3.91-1.35,8.06-2.08,11.91-3.63.28-.4-1.64-3.56-1.69-4.27-3.46,2-7.21,3.52-10.7,5.47C47.22,41.55,42.71,44.32,44.86,49.54Z"/><path class="cls-6" d="M48.74,30.91c-1.34,3.66-3.61,6.93-5.15,10.52-1.16,2.71-2.44,6.2-.06,8.65.25.25,1.07,1,1.33.79-3.15-3-1.06-6.15.91-9,.83-1.2,6.68-8.35,6.68-8.91,0-.33-1.63-1.17-2-1.36S49,30.74,48.74,30.91Z"/><path class="cls-7" d="M49.14,80.54A31.14,31.14,0,0,1,18.06,49.33,31.08,31.08,0,1,1,71.11,71.4,30.78,30.78,0,0,1,49.14,80.54Zm0-60.54A29.34,29.34,0,1,0,78.35,49.33,29.3,29.3,0,0,0,49.14,20Z"/><path class="cls-8" d="M49.14,82.41a33,33,0,0,1-30.35-20.2A33,33,0,0,1,16.2,49.33h1.86a31.08,31.08,0,1,0,62.15,0h1.87A33.11,33.11,0,0,1,62,79.81,32.54,32.54,0,0,1,49.14,82.41Z"/><path class="cls-9" d="M82.08,49.33h-.69A32.08,32.08,0,0,0,49.31,17.14a31.93,31.93,0,0,0-22.68,9.43,32.19,32.19,0,0,0-6.87,10.24,32.12,32.12,0,0,0-2.88,12.52H16.2a32.8,32.8,0,0,1,2.93-12.78A32.94,32.94,0,0,1,36.56,19a32.7,32.7,0,0,1,25.51,0,32.93,32.93,0,0,1,20,30.29Z"/><path class="cls-7" d="M98.87,71.64h4.61a3.26,3.26,0,1,1,0,6.51h-2.36v4H98.87Zm2.25,2.24v2h2.36a1,1,0,0,0,1-1,1,1,0,0,0-1-1Z"/><path class="cls-7" d="M116.59,78.15h-1v4h-2.25V71.64H118A3.25,3.25,0,0,1,119.06,78l2.3,4.24h-2.57Zm-1-4.27v2H118a1,1,0,0,0,1-1,1,1,0,0,0-1-1Z"/><path class="cls-7" d="M128.08,71.64h7.19v2.24h-4.94v1.8H135v2.24h-4.71v2h5.16v2.25h-7.41Z"/><path class="cls-7" d="M149.5,74.27a3.26,3.26,0,1,0,.24,5.09l1.87,1.31a5.5,5.5,0,1,1-.33-7.84Z"/><path class="cls-7" d="M157.85,71.64h2.25V82.19h-2.25Z"/><path class="cls-7" d="M168.57,79.63a2.46,2.46,0,0,0,1.51.52c.88,0,1.52-.4,1.52-1a.88.88,0,0,0-.64-.88l-1.87-.54a3,3,0,0,1-2.11-3,3.35,3.35,0,0,1,3.5-3.29,3.91,3.91,0,0,1,2.88,1.21l-1.74,1.45a1.67,1.67,0,0,0-1.15-.42,1.12,1.12,0,0,0-1.25,1.06.86.86,0,0,0,.65.87l1.88.54a3,3,0,0,1,2.11,3,3.47,3.47,0,0,1-3.72,3.27A4.43,4.43,0,0,1,166.79,81Z"/><path class="cls-7" d="M181,71.64h2.24V82.19H181Z"/><path class="cls-7" d="M195.47,71.41A5.5,5.5,0,1,1,190,76.92,5.51,5.51,0,0,1,195.47,71.41Zm0,8.76a3.26,3.26,0,1,0-3.25-3.25A3.26,3.26,0,0,0,195.46,80.17Z"/><path class="cls-7" d="M210,74.08v8.11h-2.25V71.64h3.4l4.23,7.82V71.64h2.25V82.19h-3.23Z"/><path class="cls-7" d="M233.58,71.64h8.08v2.24h-2.92v8.31h-2.25V73.88h-2.91Z"/><path class="cls-7" d="M248.11,71.64h7.18v2.24h-4.94v1.8h4.72v2.24h-4.72v2h5.17v2.25h-7.41Z"/><path class="cls-7" d="M269.52,74.27a3.26,3.26,0,1,0,.24,5.09l1.87,1.31a5.5,5.5,0,1,1-.33-7.84Z"/><path class="cls-7" d="M284.83,77.7h-4.71v4.49h-2.25V71.64h2.25v3.81h4.71V71.64h2.25V82.19h-2.25Z"/><path class="cls-7" d="M296.52,74.08v8.11h-2.24V71.64h3.39l4.24,7.82V71.64h2.24V82.19h-3.23Z"/><path class="cls-7" d="M316.56,71.41a5.5,5.5,0,1,1-5.49,5.51A5.51,5.51,0,0,1,316.56,71.41Zm0,8.76a3.26,3.26,0,1,0-3.24-3.25A3.27,3.27,0,0,0,316.54,80.17Z"/><path class="cls-7" d="M328.85,71.64h2.24v8.3h4.49v2.25h-6.73Z"/><path class="cls-7" d="M347,71.41a5.5,5.5,0,1,1-5.49,5.51A5.51,5.51,0,0,1,347,71.41Zm0,8.76a3.26,3.26,0,1,0-3.24-3.25A3.27,3.27,0,0,0,347,80.17Z"/><path class="cls-7" d="M366.68,81.87a5.49,5.49,0,0,1-7.87-5,5.49,5.49,0,0,1,9.42-3.85l-1.49,1.71a3.25,3.25,0,1,0-.08,4.37v-1h-2V75.9h4.27v5.75h-1.8Z"/><path class="cls-7" d="M379.64,75.65l2.44-4h2.62l-3.82,6.27v4.28h-2.24V78.28l-4-6.64h2.61Z"/><path class="cls-7" d="M108.29,50a4.22,4.22,0,0,0,4.34,3.89A4.31,4.31,0,0,0,117,49.53V16.45h9.73V49.53a14.12,14.12,0,0,1-27.95,2.79Z"/><path class="cls-7" d="M152.19,38l22.9,24.19H161.53l-15.95-17v17h-9.73V16.45h9.73V30.91l13.88-14.46h13.36Z"/><path class="cls-7" d="M198,16.45h13.88l11.86,32.82,12-32.82h13.82V62.17h-9.73V33.64L229.43,62.17H218.08L207.71,33.83V62.17H198Z"/><path class="cls-7" d="M270.61,16.45H282l16,45.72H287.54l-3.37-9.72H268.34L265,62.17H254.66Zm1.17,26.27h9l-4.47-13Z"/><path class="cls-7" d="M303,16.45h9.73V62.17H303Z"/><path class="cls-7" d="M331.9,27V62.17h-9.73V16.45h14.72l18.35,33.92V16.45H365V62.17H351Z"/><path class="cls-7" d="M375,16.45h9.73V62.17H375Z"/><path class="cls-10" d="M150.58,91.89l-3.25,9.32h2.1l.68-2h3.23l.68,2h2.13l-3.26-9.32Zm.23,5.35.93-2.65.91,2.65Z"/><path class="cls-10" d="M214.23,97.64H216v.88a2.89,2.89,0,1,1,.07-3.85l1.32-1.51a4.85,4.85,0,1,0-1.38,7.77l.39-.2H218V95.66h-3.76Z"/><path class="cls-10" d="M227.36,94.77a2.89,2.89,0,0,0-2.88-2.88h-4.07v9.32h2V97.64h.89l1.94,3.57h2.27l-2-3.74A2.87,2.87,0,0,0,227.36,94.77Zm-2.88.89h-2.09V93.87h2.09a.9.9,0,1,1,0,1.79Z"/><path class="cls-10" d="M234.08,91.69A4.86,4.86,0,1,0,239,96.55,4.86,4.86,0,0,0,234.08,91.69Zm0,7.73A2.88,2.88,0,1,1,237,96.55,2.86,2.86,0,0,1,234.07,99.42Z"/><path class="cls-10" d="M247.09,97.44a2,2,0,0,1-4,0V91.89h-2v5.55a4,4,0,0,0,7.93,0V91.89h-2Z"/><path class="cls-10" d="M255.66,91.89h-4.07v9.32h2V97.64h2.09a2.88,2.88,0,1,0,0-5.75Zm0,3.77h-2.09V93.87h2.09a.9.9,0,1,1,0,1.79Z"/><path class="cls-10" d="M269.59,99.42a2.88,2.88,0,1,1,1.69-5.2L272.85,93a4.85,4.85,0,1,0,.29,6.92l-1.65-1.16A2.84,2.84,0,0,1,269.59,99.42Z"/><path class="cls-10" d="M279.31,91.69a4.86,4.86,0,1,0,4.86,4.86A4.86,4.86,0,0,0,279.31,91.69Zm0,7.73a2.88,2.88,0,0,1,0-5.75,2.88,2.88,0,1,1,0,5.75Z"/><polygon class="cls-10" points="291.61 98.58 289.19 91.89 286.37 91.89 286.37 101.21 288.35 101.21 288.35 95.43 290.46 101.21 292.77 101.21 294.89 95.39 294.89 101.21 296.87 101.21 296.87 91.89 294.06 91.89 291.61 98.58"/><path class="cls-10" d="M303.57,91.89H299.5v9.32h2V97.64h2.09a2.88,2.88,0,1,0,0-5.75Zm0,3.77h-2.09V93.87h2.09a.9.9,0,1,1,0,1.79Z"/><path class="cls-10" d="M309.83,91.89l-3.25,9.32h2.1l.69-2h3.22l.69,2h2.13l-3.27-9.32Zm.24,5.35.92-2.65.92,2.65Z"/><polygon class="cls-10" points="323.82 98.8 320.08 91.89 317.08 91.89 317.08 101.21 319.07 101.21 319.07 94.04 322.95 101.21 325.81 101.21 325.81 91.89 323.82 91.89 323.82 98.8"/><polygon class="cls-10" points="333.93 91.89 331.78 95.43 329.64 91.89 327.32 91.89 330.89 97.76 330.89 101.21 332.87 101.21 332.87 97.43 336.24 91.89 333.93 91.89"/><path class="cls-11" d="M181.24,93.29l1-1a.7.7,0,0,1,1.14,0c.25.27.47.56.73.89.35-.29.69-.58,1-.88.6-.54,1-.51,1.55.09a2.72,2.72,0,0,1,.65,2.25c-.12,1.14-.21,2.28-.32,3.42,0,.37-.07.74-.09,1.1,0,.62,0,.62.59.93l-2.37,1c.05-.65.08-1.18.12-1.71.14-1.61.29-3.22.41-4.82a2.35,2.35,0,0,0-.16-1,.57.57,0,0,0-1-.24,1.28,1.28,0,0,0-.53,1c0,1.75,0,3.49,0,5.24a.63.63,0,0,1-.36.64c-.36.2-.69.44-1.11.71,0-.29,0-.5,0-.72,0-2,0-3.91,0-5.87a2.36,2.36,0,0,0-.16-.78c-.12-.3-.37-.33-.63-.16a1.19,1.19,0,0,0-.48,1.08c0,1.74,0,3.49,0,5.23a.63.63,0,0,1-.37.64c-.37.19-.72.41-1.17.68V94.62c0-.81-.15-1-.94-1.2-.07,0-.16-.08-.17-.13a.23.23,0,0,1,.1-.2c.54-.3,1.09-.59,1.65-.85a.41.41,0,0,1,.37.15A8.81,8.81,0,0,1,181.24,93.29Z"/><path class="cls-11" d="M161.76,101V94c0-.66-.13-.8-.77-.87a1.57,1.57,0,0,1-.24,0s0-.09,0-.1a18,18,0,0,1,1.77-1.1c.33-.16.59.19.77.47a4,4,0,0,1,.23.5c.43-.28.85-.54,1.24-.83a.65.65,0,0,1,.95.06,4.1,4.1,0,0,1,1.13,3.58,1.32,1.32,0,0,1-.57.74c-1.14.82-1.17.62-.47,2a13.52,13.52,0,0,0,1.18,1.76c.17.24.15.36-.09.54-.83.61-1.24.54-1.84-.29a20.67,20.67,0,0,1-1.19-2c-.08-.12-.14-.26-.21-.39l-.11,0c0,.13,0,.25-.05.38,0,.55,0,1.11,0,1.66a.48.48,0,0,1-.37.53C162.68,100.7,162.26,100.86,161.76,101Zm1.76-5.78a10.28,10.28,0,0,0,0,1.11.51.51,0,0,0,.27.37c1,.2,1.31,0,1.36-1.07l0-.21a2.78,2.78,0,0,0-.57-2c-.32-.35-.47-.32-.77,0C163.4,94,163.55,94.65,163.52,95.26Z"/><path class="cls-11" d="M199.19,90.6a4.84,4.84,0,0,1,2.14-.9l-.34.55c.3.28.61.58.93.85.65.56,1.33,1.07,1.94,1.65a2.31,2.31,0,0,1,.71,1.84c0,1.52,0,3,0,4.56a1.25,1.25,0,0,1-.85,1.31c-.59.22-1.17.44-1.76.62a1.17,1.17,0,0,1-1.47-.54,3.56,3.56,0,0,1-.58-2.26,14.9,14.9,0,0,1,.32-2.21,2.78,2.78,0,0,1,1.52-1.78c1-.52.94-.56.13-1.25s-1.51-1.28-2.25-1.94A4.76,4.76,0,0,1,199.19,90.6Zm3.71,6.61H203c0-.71,0-1.42,0-2.13,0-.17-.14-.33-.22-.5a1.46,1.46,0,0,0-.49.28,1.43,1.43,0,0,0-.31.63c-.16.92-.34,1.84-.41,2.76a4,4,0,0,0,.24,1.49.8.8,0,0,0,.61.45c.3,0,.52-.25.52-.6C202.91,98.79,202.9,98,202.9,97.21Z"/><path class="cls-11" d="M175.44,101.19a3.62,3.62,0,0,1-.38-.58q-1.17-3.27-2.31-6.54a.63.63,0,0,0-.71-.51c-.16,0-.32-.12-.47-.18a1.52,1.52,0,0,1,.31-.35c.5-.27,1-.49,1.52-.77.33-.17.48-.14.61.24.61,1.84,1.25,3.66,1.88,5.49a1.21,1.21,0,0,0,.3.5c.1-.42.21-.83.3-1.25.32-1.48.63-2.95.95-4.43.1-.48.47-.74,1.1-.72,0,.23-.07.46-.13.68q-1.31,5-2.63,10a1.81,1.81,0,0,1-3.62-.19.5.5,0,0,1,.2-.35,12,12,0,0,1,1.25-.49c.07,0,.24.1.29.19s.09.41.21.55.38.45.54.43a1,1,0,0,0,.61-.48,6.73,6.73,0,0,0,.31-1.27Z"/><path class="cls-11" d="M195.78,93.42c.39-.36.75-.68,1.1-1,.67-.67,1.08-.64,1.68.13a2.27,2.27,0,0,1,.52,1.85c-.13.86-.14,1.74-.21,2.62-.05.65-.12,1.29-.15,1.94,0,.39-.22.87.45,1l0,.1-2,1.13-.11-.11c0-.63.07-1.27.11-1.9.08-1,.16-1.91.25-2.87,0-.56.1-1.13.13-1.69a2.68,2.68,0,0,0-.05-.8c-.13-.57-.56-.71-1-.34a2,2,0,0,0-.79,1.66c0,1.58,0,3.17,0,4.76a.69.69,0,0,1-.4.72c-.24.13-.47.3-.71.45s-.42.13-.41-.22,0-.79,0-1.19V94.44c0-.83-.15-1-1-1a1.21,1.21,0,0,1-.3-.11c.06-.1.1-.25.19-.29a15,15,0,0,1,1.57-.74.52.52,0,0,1,.74.36Z"/><path class="cls-11" d="M167.23,93.68c.42-.56.76-1,1.13-1.47a.48.48,0,0,1,.35-.14c.63,0,1.25,0,1.88,0,.29,0,.38.11.44.37.5,2.29,1,4.58,1.53,6.86a5.86,5.86,0,0,0,.55,1.17l-.93.55a.4.4,0,0,1-.61-.15c-.13-.21-.3-.4-.47-.62l-.17.2c-.44.69-.7,1-1.88.55a2.94,2.94,0,0,1-2-3,1.39,1.39,0,0,1,.62-1.07c.62-.39,1.25-.76,1.9-1.12.31-.17.48-.35.33-.73a5.22,5.22,0,0,1-.2-.87.58.58,0,0,0-.68-.52C168.49,93.69,167.91,93.68,167.23,93.68Zm3.62,5.53c-.19-.9-.36-1.7-.54-2.5a.38.38,0,0,0-.27-.22,1.61,1.61,0,0,0-1.4,1.31,2.91,2.91,0,0,0,1.33,2.3.37.37,0,0,0,.37,0C170.54,99.79,170.7,99.47,170.85,99.21Z"/><path class="cls-11" d="M193,96.74c-.05.5-.13,1.22-.2,1.93a2.11,2.11,0,0,1-1.28,1.77c-.41.2-.79.44-1.21.6a1.26,1.26,0,0,1-1.63-.59,4.45,4.45,0,0,1-.61-2.13,11,11,0,0,1,.3-3.71,3.78,3.78,0,0,1,2.42-2.44,1,1,0,0,1,1,.17,2.63,2.63,0,0,1,1,2C192.88,95.07,192.9,95.8,193,96.74Zm-1.4-.11c-.17-.93-.31-1.91-.52-2.87,0-.24-.33-.44-.51-.66-.17.22-.45.42-.5.67a16,16,0,0,0-.39,2.37,8.87,8.87,0,0,0,.33,3.32c.09.29.34.72.56.74.42.06.51-.44.57-.76C191.29,98.54,191.4,97.61,191.56,96.63Z"/></svg>